:SAMPLES-PER-SECOND 30
:FULLY-SPECIFIED
:DEGREES
694
root  -75.4644 40.3459 4.64649 179.947 43.8951 178.213
RightUpLeg  -18.9615 -5.25555 -4.92804
RightLeg  17.102 -0.169931 -0.237588
RightFoot  2.59516 -0.485466 4.11346
RightToes  -1.74624e-010 0 -3.6325e-017
Spine  6.28963 1.47863 1.28877
Spine1  2.40584 3.27718 -8.64168
HEad  -9.7754 -18.4091 9.10594
LeftShoulder1  -0.489866 4.77039 -32.5333
LeftArm  -4.03316 17.1448 -30.9518
LeftForeArm  23.7226 -12.5083 -6.42573
LeftHand  -0.0536055 7.79251 -0.535452
RightShoulder  -0.866659 -5.95462 28.7684
RightArm  18.4504 5.2873 38.4911
RightForeArm  8.88328 12.7565 7.00168
RightHand  -0.182071 4.10158 -2.49512
LeftUpLeg  0.887008 7.82433 -0.506992
LeftLeg  12.5724 9.04051 0.491125
LeftFoot  -13.2938 0.09675 1.00449
LeftToes  2.27646e-009 -8.13696e-011 -1.44715e-011
695
root  -75.5931 40.278 4.50455 179.925 48.9997 178.291
RightUpLeg  -20.1103 -7.05658 -4.14267
RightLeg  21.5089 -0.694581 -0.511988
RightFoot  2.3232 -0.495302 4.26478
RightToes  -1.74624e-010 0 -3.6325e-017
Spine  5.80712 1.36561 0.135199
Spine1  2.36638 2.88294 -7.70217
HEad  -10.4175 -17.042 7.23843
LeftShoulder1  -0.516013 4.84087 -32.4495
LeftArm  -7.02099 15.8216 -31.4664
LeftForeArm  28.854 -7.91708 -6.68833
LeftHand  -0.0702103 8.32015 -0.724662
RightShoulder  -0.926939 -6.13446 28.6712
RightArm  17.6367 4.29641 38.0305
RightForeArm  9.87695 12.0202 7.06744
RightHand  -0.114929 3.73275 -1.74214
LeftUpLeg  1.34582 8.33912 -0.771865
LeftLeg  12.794 13.6251 0.726049
LeftFoot  -13.8754 0.0970446 0.615218
LeftToes  2.27646e-009 -8.13696e-011 -1.44715e-011
696
root  -75.6349 40.2535 4.33414 179.813 53.1011 178.717
RightUpLeg  -20.5947 -7.43076 -3.6352
RightLeg  25.7371 -0.0674199 -0.232387
RightFoot  1.89396 -0.46988 4.1535
RightToes  -1.74624e-010 0 -3.6325e-017
Spine  5.72776 0.832705 -0.863181
Spine1  2.26234 1.97139 -6.38351
HEad  -10.2003 -16.1601 8.76742
LeftShoulder1  -0.490751 4.77897 -32.3344
LeftArm  -7.56663 14.926 -31.9441
LeftForeArm  31.9691 -4.90893 -6.23035
LeftHand  -0.0607027 7.09544 -2.77701
RightShoulder  -1.06175 -6.51593 28.7156
RightArm  16.3083 2.72015 37.6826
RightForeArm  10.8277 11.6489 6.80428
RightHand  -0.156398 3.03849 -2.3894
LeftUpLeg  2.40298 8.72977 -0.777605
LeftLeg  12.5847 17.2751 1.02826
LeftFoot  -14.1256 0.0868618 0.0977989
LeftToes  2.27646e-009 -8.13696e-011 -1.44715e-011
697
root  -75.658 40.1761 4.21081 179.657 57.3745 178.202
RightUpLeg  -22.2927 -6.8136 -3.7189
RightLeg  29.676 2.24086 1.15098
RightFoot  1.08967 -0.393065 3.67903
RightToes  -1.74624e-010 0 -3.6325e-017
Spine  5.23248 0.434665 -2.44024
Spine1  2.13713 1.27546 -5.30021
HEad  -11.0838 -16.9045 8.46984
LeftShoulder1  -0.372942 4.47997 -32.0721
LeftArm  -8.91468 13.7351 -32.9879
LeftForeArm  33.1607 -2.5393 -5.2863
LeftHand  0.0566529 3.557 -3.75974
RightShoulder  -1.07219 -6.48888 29.3871
RightArm  14.1286 1.15264 36.805
RightForeArm  10.5629 10.4458 6.57504
RightHand  -0.147772 4.44761 -1.97594
LeftUpLeg  2.46404 8.84489 -1.57112
LeftLeg  12.7437 21.3596 1.51448
LeftFoot  -14.4696 0.0715629 -0.564283
LeftToes  2.27646e-009 -8.13696e-011 -1.44715e-011
698
root  -75.6464 40.1511 4.06858 179.598 61.0747 178.19
RightUpLeg  -23.0504 -6.95527 -3.3814
RightLeg  31.3451 4.09059 2.44455
RightFoot  0.355102 -0.427443 4.19578
RightToes  -1.74624e-010 0 -3.6325e-017
Spine  5.71301 -0.103129 -3.8512
Spine1  1.50118 0.28726 -3.52368
HEad  -11.1601 -14.2659 8.44374
LeftShoulder1  -0.323448 4.35278 -31.9698
LeftArm  -8.07689 12.8298 -34.0215
LeftForeArm  32.759 -2.76127 -6.03529
LeftHand  -0.0703809 7.7495 -0.853595
RightShoulder  -1.06879 -6.47219 29.471
RightArm  13.2324 -0.899946 36.2273
RightForeArm  9.79186 9.91529 6.38521
RightHand  -0.230267 4.27885 -3.40032
LeftUpLeg  3.04251 8.89449 -2.06522
LeftLeg  12.413 24.8245 1.93271
LeftFoot  -14.3475 0.0596623 -1.01097
LeftToes  2.27646e-009 -8.13696e-011 -1.44715e-011
699
root  -75.5703 40.1688 3.93671 -179.607 64.3747 179.059
RightUpLeg  -23.3794 -7.90617 -2.35894
RightLeg  30.7296 4.49619 2.65404
RightFoot  -0.217399 -0.506904 5.18786
RightToes  -1.74624e-010 0 -3.6325e-017
Spine  5.90732 -0.508757 -4.84921
Spine1  1.48815 -0.562714 -1.43389
HEad  -12.3923 -13.6513 7.57544
LeftShoulder1  -0.364619 4.45627 -32.1417
LeftArm  -8.05535 10.9682 -35.061
LeftForeArm  32.6746 -3.75911 -6.24777
LeftHand  -0.0376112 6.71996 -0.665971
RightShoulder  -1.104 -6.53978 29.8374
RightArm  13.1043 -2.87588 35.4066
RightForeArm  9.68169 9.57524 6.26687
RightHand  -0.254622 1.1105 -5.31051
LeftUpLeg  3.707 8.88799 -2.15916
LeftLeg  11.7248 27.9279 2.28263
LeftFoot  -14.0414 0.0498729 -1.45361
LeftToes  2.27646e-009 -8.13696e-011 -1.44715e-011
700
root  -75.4714 40.1964 3.84492 -178.141 67.0998 -179.661
RightUpLeg  -23.8085 -9.17808 -1.07042
RightLeg  28.5531 3.83154 2.03877
RightFoot  -1.0785 -0.503204 5.5106
RightToes  -1.74624e-010 0 -3.6325e-017
Spine  6.167 -0.920565 -5.69078
Spine1  1.4369 -1.39183 0.666665
HEad  -13.1363 -11.5082 7.76329
LeftShoulder1  -0.420939 4.59288 -32.5116
LeftArm  -8.03248 8.19473 -35.8607
LeftForeArm  29.9029 -4.80047 -6.51337
LeftHand  0.0028625 8.6274 1.80963
RightShoulder  -1.11563 -6.54452 30.1621
RightArm  11.7149 -4.86555 34.4738
RightForeArm  9.59346 7.65498 5.92971
RightHand  -0.117587 6.69426 -1.29054
LeftUpLeg  3.98044 9.04124 -1.97299
LeftLeg  11.1928 30.4319 2.32782
LeftFoot  -13.8471 0.0440329 -1.78537
LeftToes  2.27646e-009 -8.13696e-011 -1.44715e-011
701
root  -75.3329 40.2232 3.73485 -176.75 69.4645 -178.441
RightUpLeg  -24.067 -10.4419 0.175674
RightLeg  25.2445 2.64791 1.14866
RightFoot  -1.70283 -0.448446 5.1773
RightToes  -1.74624e-010 0 -3.6325e-017
Spine  6.55369 -1.22256 -6.06197
Spine1  1.51786 -1.98118 2.16818
HEad  -13.9698 -10.4931 7.61062
LeftShoulder1  -0.448966 4.66103 -32.6554
LeftArm  -8.04414 4.84423 -36.6672
LeftForeArm  29.0101 -6.43394 -6.72663
LeftHand  -0.00675615 7.91599 1.52975
RightShoulder  -1.12821 -6.55339 30.469
RightArm  11.0558 -7.53161 34.0448
RightForeArm  10.208 6.95121 5.51497
RightHand  -0.261666 5.73858 -3.05754
LeftUpLeg  4.43968 9.03753 -1.94783
LeftLeg  10.4333 32.6917 2.26486
LeftFoot  -13.6675 0.0364808 -2.23619
LeftToes  2.27646e-009 -8.13696e-011 -1.44715e-011
702
root  -75.1376 40.2241 3.64807 -175.692 71.2095 -177.507
RightUpLeg  -24.0187 -11.34 1.28976
RightLeg  21.1826 1.61289 0.460278
RightFoot  -2.23947 -0.417834 5.05393
RightToes  -1.74624e-010 0 -3.6325e-017
Spine  7.09624 -1.57245 -6.16686
Spine1  1.74921 -2.50245 2.96967
HEad  -15.3684 -10.1063 7.94999
LeftShoulder1  -0.405555 4.55837 -32.3149
LeftArm  -8.47059 1.12904 -37.7422
LeftForeArm  28.3453 -8.2575 -6.60763
LeftHand  -0.0179338 6.73869 1.47422
RightShoulder  -1.1528 -6.59231 30.7963
RightArm  10.5103 -10.5196 34.2487
RightForeArm  11.3002 6.17102 5.12625
RightHand  -0.23291 4.65054 -2.99511
LeftUpLeg  4.89517 9.05128 -1.93322
LeftLeg  9.93922 34.5011 2.21445
LeftFoot  -13.5481 0.0309412 -2.61511
LeftToes  2.27646e-009 -8.13696e-011 -1.44715e-011
703
root  -74.8787 40.2187 3.54082 -174.582 72.7829 -176.559
RightUpLeg  -23.7689 -11.9798 2.40124
RightLeg  16.7386 0.913816 0.189261
RightFoot  -2.51738 -0.402561 4.99057
RightToes  -1.74624e-010 0 -3.6325e-017
Spine  7.5288 -1.79546 -5.71189
Spine1  2.1206 -2.79169 3.25598
HEad  -16.2571 -9.45004 8.20581
LeftShoulder1  -0.372005 4.47624 -32.1184
LeftArm  -8.36718 -3.25273 -38.6534
LeftForeArm  27.527 -9.7226 -6.48939
LeftHand  -0.00838129 7.1246 1.79142
RightShoulder  -1.21354 -6.73311 31.0647
RightArm  9.97119 -13.4921 34.6705
RightForeArm  12.2276 5.19021 4.75236
RightHand  -0.215518 5.1433 -2.62755
LeftUpLeg  5.55487 8.89973 -2.05991
LeftLeg  9.06367 36.2142 2.07181
LeftFoot  -13.4052 0.024728 -3.08277
LeftToes  2.27646e-009 -8.13696e-011 -1.44715e-011
704
root  -74.525 40.1881 3.46085 -174.406 73.7045 -176.605
RightUpLeg  -23.19 -11.2087 2.43997
RightLeg  12.5206 -1.31216 0.4318
RightFoot  -2.91389 -0.393469 5.06699
RightToes  -1.74624e-010 0 -3.6325e-017
Spine  7.45832 -2.24412 -6.28058
Spine1  3.06565 -3.57046 4.49475
HEad  -17.0788 -9.84132 7.43219
LeftShoulder1  -0.441419 4.64809 -32.433
LeftArm  -7.37692 -7.69937 -38.9074
LeftForeArm  26.312 -11.4587 -6.44939
LeftHand  -0.00371744 6.90218 1.96643
RightShoulder  -1.14956 -6.56443 31.0252
RightArm  9.25726 -16.2365 35.7462
RightForeArm  15.0287 4.40279 4.32068
RightHand  -0.0800041 2.4557 -1.45248
LeftUpLeg  6.30665 8.93415 -2.10274
LeftLeg  8.25558 37.0104 1.53163
LeftFoot  -13.4788 0.0199909 -3.26036
LeftToes  2.27646e-009 -8.13696e-011 -1.44715e-011
705
root  -74.1043 40.1306 3.37702 -175.052 74.0508 -177.829
RightUpLeg  -22.7263 -8.60933 1.22882
RightLeg  9.01264 -6.34948 0.971788
RightFoot  -2.99534 -0.377324 4.89761
RightToes  -1.74624e-010 0 -3.6325e-017
Spine  7.28221 -2.69695 -7.16559
Spine1  3.43431 -4.39103 5.94913
HEad  -17.2913 -9.82882 6.3432
LeftShoulder1  -0.486097 4.76173 -32.4894
LeftArm  -6.62357 -11.7492 -39.7359
LeftForeArm  25.6396 -12.7605 -6.23394
LeftHand  -0.00625109 6.87901 2.22968
RightShoulder  -1.08922 -6.42315 30.7691
RightArm  8.62629 -19.793 36.8083
RightForeArm  15.3407 4.75492 4.00826
RightHand  -0.134174 5.79283 -1.71045
LeftUpLeg  6.72979 8.84038 -2.38367
LeftLeg  7.57539 37.2529 0.961542
LeftFoot  -13.5487 0.017694 -3.29872
LeftToes  2.27646e-009 -8.13696e-011 -1.44715e-011
706
root  -73.5713 40.038 3.28751 -176.088 74.0559 -179.301
RightUpLeg  -22.2733 -6.65371 0.3832
RightLeg  6.7994 -10.506 1.25668
RightFoot  -2.83706 -0.288874 3.61215
RightToes  -1.74624e-010 0 -3.6325e-017
Spine  7.44008 -3.03614 -7.46625
Spine1  3.25306 -4.94525 6.76218
HEad  -16.6436 -9.37033 6.2648
LeftShoulder1  -0.420878 4.60817 -31.9784
LeftArm  -5.66611 -14.8681 -41.1149
LeftForeArm  24.8694 -14.2539 -5.85791
LeftHand  -0.0107452 6.46395 2.33601
RightShoulder  -1.13941 -6.54898 30.8867
RightArm  8.68105 -23.1971 37.6914
RightForeArm  16.4641 5.99388 3.96463
RightHand  -0.117368 4.15786 -1.69005
LeftUpLeg  7.41863 8.67214 -2.66381
LeftLeg  7.12136 37.2806 0.675633
LeftFoot  -13.8521 -0.00287646 -3.89761
LeftToes  2.27646e-009 -8.13696e-011 -1.44715e-011
707
root  -72.9268 39.896 3.1798 -177.618 73.7332 178.847
RightUpLeg  -21.4781 -5.93877 -0.149774
RightLeg  5.31233 -12.3546 1.57075
RightFoot  -2.72059 -0.289602 3.60655
RightToes  -1.74624e-010 0 -3.6325e-017
Spine  7.18712 -3.43169 -8.00264
Spine1  3.67931 -5.64343 7.85348
HEad  -17.3461 -10.1396 4.22163
LeftShoulder1  -0.436893 4.65799 -31.7176
LeftArm  -3.10373 -17.6675 -42.3591
LeftForeArm  22.7608 -16.0903 -5.57706
LeftHand  -0.0190699 5.80326 2.68146
RightShoulder  -1.1071 -6.48281 30.6281
RightArm  8.5572 -26.1829 38.8226
RightForeArm  17.2127 7.7505 3.95319
RightHand  -0.0820234 4.04623 -1.34513
LeftUpLeg  8.39379 8.65448 -2.84993
LeftLeg  6.83587 36.742 0.398588
LeftFoot  -14.4582 -0.0416837 -4.72166
LeftToes  2.27646e-009 -8.13696e-011 -1.44715e-011
708
root  -72.2031 39.817 3.05031 -177.003 73.711 179.264
RightUpLeg  -21.4068 -5.31789 0.422249
RightLeg  5.97284 -11.7482 1.3943
RightFoot  -0.367391 -0.0180491 0.325954
RightToes  -1.74624e-010 0 -3.6325e-017
Spine  6.7939 -3.61254 -7.31324
Spine1  4.291 -6.07809 8.64087
HEad  -17.3462 -10.4414 3.77422
LeftShoulder1  -0.446141 4.69402 -31.3408
LeftArm  0.273362 -19.4372 -44.0104
LeftForeArm  20.891 -18.5551 -4.93325
LeftHand  -0.0234361 5.50235 3.31947
RightShoulder  -1.10864 -6.50937 30.3463
RightArm  8.30843 -27.7598 40.1191
RightForeArm  16.7787 7.81149 3.99027
RightHand  -0.0963634 7.19229 -1.23253
LeftUpLeg  9.83105 8.68775 -2.38012
LeftLeg  5.85375 36.1692 -0.182601
LeftFoot  -14.635 -0.0742753 -5.6424
LeftToes  2.27646e-009 -8.13696e-011 -1.44715e-011
